# xmcd
# 
# Track frame offsets:
#     175
#     13852
#     26195
#     35862
#     45475
#     57050
#     71927
#     85507
#     97347
#     107197
#     117910
#     130007
# 
# Disc length: 1936
# 
# Revision: 5
# Processed by: cddbd v1.5.2PL0 Copyright (c) Steve Scherf et al.
# Submitted via: fre:ac v1.0.31
# 
DISCID=a8078e0c
DTITLE=Leon Redbone - RED To BLUE
DYEAR=1987
DGENRE=Blues
TTITLE0=Diamonds Don't Mean A Thing
TTITLE1=Lovesick Blues
TTITLE2=Reaching For Someone And Not Finding Anyone There
TTITLE3=Somebody Stole My Gal
TTITLE4=Steal Away Blues
TTITLE5=Aw You Salty Dog
TTITLE6=Border Of The Quarter
TTITLE7=Someday Sweetheart
TTITLE8=Whose Honey Are You?
TTITLE9=Living With The Blues
TTITLE10=Nobody Cares If I'm Blue
TTITLE11=Think Of Me Thinking Of You
EXTD=YEAR: 1987
EXTT0=
EXTT1=
EXTT2=
EXTT3=
EXTT4=
EXTT5=
EXTT6=
EXTT7=
EXTT8=
EXTT9=
EXTT10=
EXTT11=
PLAYORDER=
